<svg xmlns="http://www.w3.org/2000/svg" viewBox="0 0 360.86 434.98"><defs><style>.cls-1{fill:#3e6ff4;}</style></defs><g id="Layer_2" data-name="Layer 2"><g id="Layer_1-2" data-name="Layer 1"><g id="Layer_2-2" data-name="Layer 2"><g id="Layer_1-2-2" data-name="Layer 1-2"><path class="cls-1" d="M308.68,417.75c-38.54,23.14-77.09,23.19-114.84-1.14-5-3.19-9.17-4.56-13.42-4.07-4.25-.49-8.41.88-13.42,4.07-37.75,24.33-76.3,24.27-114.84,1.13C14.09,394.94-.54,359.87,0,317.34c.06-6.32,3.66-13.79,8.16-18.42,21.21-21.81,43.35-42.78,68.21-67.12-.17,15.58-.41,27.65-.31,39.6.15,19.22-.53,38.55,1.14,57.55s16,30.28,33.09,29.05c18.65-1.32,31.08-13.72,31.64-32.7.71-23,.72-45.93,1-68.89q.56-52.71,1-105.44c-.06-4.81-1.18-9.63-1.5-12.56C95.57,181.85,48.94,225.06,2.91,267.57L4.53,115.38c32.67,24,54.55,4.92,76.59-17.46C112.44,66.18,144.57,35.15,180.44,0c35.87,35.16,68,66.18,99.32,97.93,22,22.38,43.9,41.48,76.58,17.47l1.6,152.19c-46-42.51-92.64-85.73-139.51-129.18-.32,2.94-1.44,7.76-1.51,12.56q.39,52.72,1,105.45c.25,23,.25,45.93,1,68.89.56,19,13,31.38,31.64,32.7,17.11,1.23,31.29-10.05,33.09-29.05s1-38.33,1.14-57.55c.11-12-.14-24-.3-39.6,24.86,24.34,47,45.32,68.2,67.13,4.5,4.63,8.1,12.09,8.16,18.42C361.38,359.89,346.75,395,308.68,417.75Z"/></g></g></g></g></svg>