<svg xmlns="http://www.w3.org/2000/svg" width="12" height="12" fill="none" viewBox="0 0 12 12"><path fill="#9A9A9A" d="M8.66678 12.0002H2.00002C1.46576 12.0002 0.963516 11.7921 0.585776 11.4144C0.208036 11.0366 0 10.5343 0 10.0001V3.33338C0 2.79914 0.20806 2.2969 0.5858 1.91916C0.96354 1.54142 1.46578 1.33336 2.00004 1.33336H4.66674C5.03496 1.33336 5.33342 1.63183 5.33342 2.00004C5.33342 2.36826 5.03496 2.66672 4.66674 2.66672H2.00002C1.82193 2.66672 1.65453 2.73608 1.52864 2.86197C1.40274 2.98787 1.33336 3.15529 1.33336 3.33338V10.0001C1.33336 10.1782 1.40271 10.3456 1.52864 10.4716C1.65453 10.5974 1.82193 10.6668 2.00002 10.6668H8.66676C8.84484 10.6668 9.01224 10.5975 9.13816 10.4715C9.26406 10.3456 9.33341 10.1782 9.33341 10.0001V7.33344C9.33341 6.96523 9.6319 6.66679 10.0001 6.66679C10.3683 6.66679 10.6668 6.96525 10.6668 7.33344V10.0001C10.6668 10.5344 10.4588 11.0366 10.081 11.4144C9.70324 11.7921 9.20097 12.0002 8.66678 12.0002ZM4.66674 8.0001C4.49611 8.0001 4.3255 7.93503 4.19534 7.80485C3.93499 7.54451 3.93499 7.12236 4.19534 6.86201L9.72396 1.33336H7.33344C6.96523 1.33336 6.66678 1.0349 6.66678 0.666681C6.66678 0.298466 6.96523 4.40284e-07 7.33344 4.40284e-07H11.3335C11.5076 -0.000199786 11.6748 0.067899 11.7992 0.189662L11.8006 0.191013L11.802 0.19241L11.8034 0.193831L11.8048 0.195275L11.8063 0.196719L11.807 0.197464C11.8075 0.197905 11.8086 0.199055 11.8091 0.19956L11.8104 0.200887C11.9321 0.325313 12.0003 0.492574 12.0001 0.666658V4.66672C12.0001 5.03493 11.7016 5.3334 11.3334 5.3334C10.9652 5.3334 10.6667 5.03493 10.6667 4.66672V2.2762L5.13803 7.80487C5.00797 7.93506 4.83735 8.0001 4.66674 8.0001Z"/></svg>