<svg xmlns="http://www.w3.org/2000/svg" width="23" height="23" fill="none" viewBox="0 0 23 23"><g clip-path="url(#clip0_16_50)"><path fill="#fff" d="M11.5 0C5.18353 0 0 5.18354 0 11.5C0 16.8901 3.7822 21.7864 8.80469 23V19.1953C8.30704 19.3043 7.84906 19.3075 7.34248 19.1581C6.66281 18.9576 6.11059 18.5048 5.70068 17.8145C5.43941 17.3737 4.97631 16.8957 4.49322 16.9308L4.37481 15.5884C5.41942 15.4989 6.32307 16.2249 6.85953 17.1261C7.09784 17.5269 7.37208 17.7619 7.72409 17.8657C8.06437 17.9659 8.42968 17.9179 8.8554 17.7675C8.96227 16.9152 9.35269 16.5962 9.64769 16.1469V16.1463C6.6523 15.6995 5.45855 14.1104 4.98476 12.8561C4.35688 11.1906 4.6938 9.11002 5.80404 7.7952C5.8256 7.76955 5.8646 7.70253 5.8495 7.65568C5.34045 6.118 5.96073 4.84595 5.98355 4.71105C6.57104 4.88471 6.6665 4.53621 8.53551 5.67175L8.85855 5.86581C8.99367 5.94635 8.95122 5.9004 9.0863 5.8902C9.86668 5.67821 10.6893 5.56119 11.4998 5.55068C12.3165 5.56119 13.1339 5.67826 13.9465 5.89883L14.0511 5.90934C14.0419 5.90795 14.0795 5.90264 14.1425 5.86513C16.4772 4.45095 16.3933 4.91315 17.0194 4.70961C17.0421 4.84473 17.6542 6.13745 17.1505 7.65568C17.0826 7.86483 19.1746 9.78048 18.0151 12.8556C17.5413 14.1104 16.3477 15.6995 13.3523 16.1463V16.1469C13.7363 16.7322 14.1976 17.0434 14.1951 18.2507V23C19.2178 21.7864 22.9998 16.8901 22.9998 11.5C23 5.18354 17.8165 0 11.5 0Z"/></g><defs><clipPath id="clip0_16_50"><rect width="23" height="23" fill="#fff"/></clipPath></defs></svg>