<svg width="17" height="17" viewBox="0 0 17 17" fill="none" xmlns="http://www.w3.org/2000/svg">
<path d="M15.3352 6.83559C15.3352 7.70991 14.4169 8.39548 14.1015 9.15579C13.7747 9.94395 13.9271 11.075 13.333 11.6689C12.7389 12.2627 11.6081 12.1103 10.8199 12.4371C10.0596 12.7525 9.37403 13.6708 8.49971 13.6708C7.62538 13.6708 6.93981 12.7525 6.1795 12.4371C5.39135 12.1103 4.26026 12.2627 3.66643 11.6686C3.0726 11.0744 3.22502 9.94366 2.89821 9.1555C2.58283 8.39519 1.66454 7.70962 1.66454 6.83529C1.66454 5.96097 2.58283 5.2754 2.89821 4.51509C3.22502 3.72693 3.0726 2.59585 3.66673 2.00202C4.26085 1.40819 5.39164 1.5606 6.17979 1.23379C6.9401 0.918415 7.62567 0.00012207 8.5 0.00012207C9.37433 0.00012207 10.0599 0.918415 10.8202 1.23379C11.6084 1.5606 12.7394 1.40819 13.3333 2.00231C13.9271 2.59643 13.7747 3.72722 14.1015 4.51538C14.4169 5.27569 15.3352 5.96126 15.3352 6.83559Z" fill="#FFCB29"/>
<path d="M8.5 11.2322C10.9281 11.2322 12.8966 9.26379 12.8966 6.83564C12.8966 4.40749 10.9281 2.43909 8.5 2.43909C6.07185 2.43909 4.10345 4.40749 4.10345 6.83564C4.10345 9.26379 6.07185 11.2322 8.5 11.2322Z" fill="#FAA629"/>
<path d="M8.61226 3.70111C8.55872 3.67876 8.49973 3.67288 8.44282 3.68421C8.38592 3.69554 8.33368 3.72356 8.29278 3.76471L7.22998 4.82751C7.17503 4.88247 7.14415 4.95701 7.14415 5.03473C7.14415 5.11246 7.17503 5.187 7.22998 5.24196C7.28494 5.29691 7.35948 5.32779 7.43721 5.32779C7.51493 5.32779 7.58947 5.29691 7.64443 5.24196L8.2069 4.67949V9.69918C8.2069 9.77692 8.23778 9.85147 8.29275 9.90644C8.34771 9.9614 8.42227 9.99228 8.5 9.99228C8.57774 9.99228 8.65229 9.9614 8.70726 9.90644C8.76223 9.85147 8.79311 9.77692 8.79311 9.69918V3.97194C8.79312 3.91397 8.77595 3.8573 8.74376 3.8091C8.71157 3.76089 8.66581 3.72331 8.61226 3.70111Z" fill="#EDEFF0"/>
<path d="M6.17979 12.4371C5.39164 12.1103 4.26055 12.2627 3.66672 11.6686C3.28217 11.284 3.21036 10.6744 3.11891 10.0785L0 13.7956L3.04007 14.0509L3.81914 17.0004L7.13238 13.0517C6.81495 12.8158 6.50397 12.5716 6.17979 12.4371ZM13.8811 10.0788C13.7896 10.6747 13.7178 11.2843 13.3333 11.6689C12.7394 12.2627 11.6084 12.1103 10.8202 12.4371C10.4957 12.5716 10.1851 12.8158 9.86762 13.0517L13.1809 17.0004L13.9599 14.0509L17 13.7956L13.8811 10.0788Z" fill="#3D82C4"/>
</svg>
